<?xml version="1.0" encoding="UTF-8"?>
<svg xmlns="http://www.w3.org/2000/svg" xmlns:xlink="http://www.w3.org/1999/xlink" width="168.2pt" height="196.4pt" viewBox="0 0 168.2 196.4" version="1.1">
<defs>
<clipPath id="clip1">
  <path d="M 124 143 L 168.199219 143 L 168.199219 188 L 124 188 Z M 124 143 "/>
</clipPath>
</defs>
<g id="surface1">
<path style=" stroke:none;fill-rule:evenodd;fill:rgb(89.0625%,0%,8.616638%);fill-opacity:1;" d="M 47.273438 17.136719 L 73.589844 36.816406 L 73.589844 118.210938 L 47.273438 96.792969 Z M 47.273438 17.136719 "/>
<path style=" stroke:none;fill-rule:evenodd;fill:rgb(10.594177%,9.812927%,9.423828%);fill-opacity:1;" d="M 94.722656 55.207031 L 94.722656 -0.0429688 L 121.035156 19.636719 L 121.035156 37.09375 Z M 94.722656 55.207031 "/>
<path style=" stroke:none;fill-rule:evenodd;fill:rgb(10.594177%,9.812927%,9.423828%);fill-opacity:1;" d="M 121.035156 61.96875 L 121.035156 101.03125 L 94.722656 79.613281 Z M 121.035156 61.96875 "/>
<path style=" stroke:none;fill-rule:evenodd;fill:rgb(89.0625%,0%,8.616638%);fill-opacity:1;" d="M 0.078125 143.882813 L 11.671875 143.882813 L 11.671875 161.601563 L 31.355469 161.601563 L 31.355469 143.882813 L 42.222656 143.882813 L 42.222656 187.875 L 31.355469 187.875 L 31.355469 170.339844 L 11.671875 170.339844 L 11.671875 187.875 L 0.078125 187.875 Z M 0.078125 143.882813 "/>
<path style=" stroke:none;fill-rule:evenodd;fill:rgb(89.0625%,0%,8.616638%);fill-opacity:1;" d="M 69.457031 143.882813 C 83.09375 143.882813 92.136719 156.417969 90.300781 169.238281 C 79.871094 169.238281 70.164063 169.238281 59.734375 169.238281 C 58.898438 181.5 74.132813 183.640625 77.664063 174.714844 L 89.503906 174.714844 C 80.402344 196.367188 47.65625 189.820313 47.65625 166.027344 C 47.65625 153.800781 57.417969 143.882813 69.457031 143.882813 Z M 68.753906 151.769531 C 73.816406 151.769531 77.671875 156.105469 77.785156 161.496094 L 59.691406 161.496094 C 59.800781 156.105469 63.695313 151.769531 68.753906 151.769531 Z M 68.753906 151.769531 "/>
<path style=" stroke:none;fill-rule:evenodd;fill:rgb(89.0625%,0%,8.616638%);fill-opacity:1;" d="M 114.242188 143.898438 L 122.253906 143.898438 L 122.253906 153.71875 L 117.34375 153.71875 C 111.859375 153.71875 107.371094 158.203125 107.371094 163.6875 L 107.371094 187.863281 L 95.8125 187.863281 L 95.8125 162.328125 C 95.8125 152.191406 104.105469 143.898438 114.242188 143.898438 Z M 114.242188 143.898438 "/>
<g clip-path="url(#clip1)" clip-rule="nonzero">
<path style=" stroke:none;fill-rule:evenodd;fill:rgb(89.0625%,0%,8.616638%);fill-opacity:1;" d="M 168.230469 165.050781 C 168.230469 172.203125 165.988281 177.800781 161.488281 181.828125 C 157.003906 185.871094 151.703125 187.875 145.617188 187.875 C 139.808594 187.875 134.839844 186.042969 130.691406 182.367188 C 126.550781 178.6875 124.472656 173.511719 124.472656 166.839844 C 124.472656 159.65625 126.742188 154.03125 131.257813 149.976563 C 135.785156 145.917969 141.089844 143.882813 147.175781 143.882813 C 152.949219 143.882813 157.910156 145.730469 162.039063 149.4375 C 166.164063 153.144531 168.230469 158.347656 168.230469 165.050781 Z M 156.886719 166.332031 C 156.886719 162.214844 155.890625 158.757813 153.929688 155.949219 C 151.960938 153.160156 149.386719 151.765625 146.222656 151.765625 C 143.152344 151.765625 140.65625 153.074219 138.726563 155.675781 C 136.796875 158.292969 135.835938 161.5625 135.835938 165.472656 C 135.835938 169.585938 136.8125 173.046875 138.785156 175.851563 C 140.761719 178.644531 143.328125 180.039063 146.492188 180.039063 C 149.566406 180.039063 152.058594 178.730469 153.992188 176.128906 C 155.921875 173.511719 156.886719 170.242188 156.886719 166.332031 Z M 156.886719 166.332031 "/>
</g>
</g>
</svg>
