<?xml version="1.0" encoding="UTF-8"?>
<svg xmlns="http://www.w3.org/2000/svg" xmlns:xlink="http://www.w3.org/1999/xlink" width="971pt" height="299.64pt" viewBox="0 0 971 299.64" version="1.1">
<defs>
<clipPath id="clip1">
  <path d="M 112 262 L 169 262 L 169 299.640625 L 112 299.640625 Z M 112 262 "/>
</clipPath>
</defs>
<g id="surface1">
<path style=" stroke:none;fill-rule:nonzero;fill:rgb(13.299561%,23.498535%,46.699524%);fill-opacity:1;" d="M 317.871094 260.117188 L 971 260.117188 L 971 39.53125 L 317.871094 39.53125 L 317.871094 260.117188 "/>
<path style=" stroke:none;fill-rule:evenodd;fill:rgb(90.19928%,41.19873%,14.498901%);fill-opacity:1;" d="M 98.796875 114.09375 L 110.839844 129.855469 L 121.242188 114.09375 L 98.796875 114.09375 "/>
<path style=" stroke:none;fill-rule:evenodd;fill:rgb(90.19928%,41.19873%,14.498901%);fill-opacity:1;" d="M 140.621094 84.757813 L 165.375 84.757813 L 140.378906 42.355469 L 115.363281 84.757813 L 140.621094 84.757813 "/>
<path style=" stroke:none;fill-rule:evenodd;fill:rgb(90.19928%,41.19873%,14.498901%);fill-opacity:1;" d="M 109.082031 168.570313 L 97.917969 188.007813 L 121.921875 188.007813 L 110.753906 168.570313 L 109.082031 168.570313 "/>
<path style=" stroke:none;fill-rule:evenodd;fill:rgb(90.19928%,41.19873%,14.498901%);fill-opacity:1;" d="M 55.199219 114.09375 L 53.742188 116.023438 L 75.339844 152.636719 L 98.074219 114.09375 L 55.199219 114.09375 "/>
<path style=" stroke:none;fill-rule:evenodd;fill:rgb(90.19928%,41.19873%,14.498901%);fill-opacity:1;" d="M 115.363281 84.757813 L 77.082031 84.757813 L 76.75 85.203125 L 98.394531 113.558594 L 115.363281 84.757813 "/>
<path style=" stroke:none;fill-rule:evenodd;fill:rgb(90.19928%,41.19873%,14.498901%);fill-opacity:1;" d="M 171.65625 168.570313 L 195.460938 168.570313 L 181.929688 147.894531 L 170.90625 167.257813 L 171.65625 168.570313 "/>
<path style=" stroke:none;fill-rule:evenodd;fill:rgb(90.19928%,41.19873%,14.498901%);fill-opacity:1;" d="M 159.09375 188.007813 L 182.839844 188.007813 L 171.65625 168.570313 L 170.171875 168.570313 L 159.09375 188.007813 "/>
<path style=" stroke:none;fill-rule:evenodd;fill:rgb(90.19928%,41.19873%,14.498901%);fill-opacity:1;" d="M 98.898438 147.921875 L 85.28125 168.570313 L 109.082031 168.570313 L 109.917969 167.113281 L 98.898438 147.921875 "/>
<path style=" stroke:none;fill-rule:evenodd;fill:rgb(90.19928%,41.19873%,14.498901%);fill-opacity:1;" d="M 149.539063 130.058594 L 140.378906 114.09375 L 131.199219 130.058594 L 149.539063 130.058594 "/>
<path style=" stroke:none;fill-rule:evenodd;fill:rgb(90.19928%,41.19873%,14.498901%);fill-opacity:1;" d="M 203.988281 85.203125 L 203.65625 84.757813 L 165.375 84.757813 L 182.363281 113.558594 L 203.988281 85.203125 "/>
<path style=" stroke:none;fill-rule:evenodd;fill:rgb(90.19928%,41.19873%,14.498901%);fill-opacity:1;" d="M 170.027344 129.695313 L 181.945313 114.09375 L 159.8125 114.09375 L 170.027344 129.695313 "/>
<path style=" stroke:none;fill-rule:evenodd;fill:rgb(90.19928%,41.19873%,14.498901%);fill-opacity:1;" d="M 159.8125 114.09375 L 140.621094 84.757813 L 121.242188 114.09375 L 159.8125 114.09375 "/>
<path style=" stroke:none;fill-rule:evenodd;fill:rgb(90.19928%,41.19873%,14.498901%);fill-opacity:1;" d="M 55.933594 188.007813 L 54.476563 188.007813 L 35.300781 220.523438 L 79.242188 220.523438 L 79.792969 219.574219 L 55.933594 188.007813 "/>
<g clip-path="url(#clip1)" clip-rule="nonzero">
<path style=" stroke:none;fill-rule:evenodd;fill:rgb(90.19928%,41.19873%,14.498901%);fill-opacity:1;" d="M 112.613281 262.941406 L 140.378906 299.640625 L 168.140625 262.941406 L 112.613281 262.941406 "/>
</g>
<path style=" stroke:none;fill-rule:evenodd;fill:rgb(90.19928%,41.19873%,14.498901%);fill-opacity:1;" d="M 79.242188 220.523438 L 54.878906 262.941406 L 112.613281 262.941406 L 80.527344 220.523438 L 79.242188 220.523438 "/>
<path style=" stroke:none;fill-rule:evenodd;fill:rgb(90.19928%,41.19873%,14.498901%);fill-opacity:1;" d="M 52.601563 114.09375 L 0 114.09375 L 27.765625 150.804688 L 53.742188 116.023438 L 52.601563 114.09375 "/>
<path style=" stroke:none;fill-rule:evenodd;fill:rgb(90.19928%,41.19873%,14.498901%);fill-opacity:1;" d="M 75.339844 152.636719 L 55.109375 186.941406 L 55.933594 188.007813 L 96.21875 188.007813 L 75.339844 152.636719 "/>
<path style=" stroke:none;fill-rule:evenodd;fill:rgb(90.19928%,41.19873%,14.498901%);fill-opacity:1;" d="M 168.140625 262.941406 L 225.859375 262.941406 L 201.511719 220.539063 L 200.214844 220.539063 L 168.140625 262.941406 "/>
<path style=" stroke:none;fill-rule:evenodd;fill:rgb(90.19928%,41.19873%,14.498901%);fill-opacity:1;" d="M 226.277344 188.007813 L 280.753906 188.007813 L 252.976563 150.804688 L 225.644531 186.941406 L 226.277344 188.007813 "/>
<path style=" stroke:none;fill-rule:evenodd;fill:rgb(90.19928%,41.19873%,14.498901%);fill-opacity:1;" d="M 228.136719 114.09375 L 227 116.023438 L 252.976563 150.804688 L 280.753906 114.09375 L 228.136719 114.09375 "/>
<path style=" stroke:none;fill-rule:evenodd;fill:rgb(90.19928%,41.19873%,14.498901%);fill-opacity:1;" d="M 200.949219 219.574219 L 201.511719 220.539063 L 245.453125 220.539063 L 226.277344 188.007813 L 224.824219 188.007813 L 200.949219 219.574219 "/>
<path style=" stroke:none;fill-rule:evenodd;fill:rgb(90.19928%,41.19873%,14.498901%);fill-opacity:1;" d="M 27.765625 150.804688 L 0 188.007813 L 54.476563 188.007813 L 55.109375 186.941406 L 27.765625 150.804688 "/>
<path style=" stroke:none;fill-rule:evenodd;fill:rgb(90.19928%,41.19873%,14.498901%);fill-opacity:1;" d="M 225.558594 114.09375 L 228.136719 114.09375 L 245.453125 84.757813 L 204.335938 84.757813 L 203.988281 85.203125 L 225.558594 114.09375 "/>
<path style=" stroke:none;fill-rule:evenodd;fill:rgb(90.19928%,41.19873%,14.498901%);fill-opacity:1;" d="M 140.578125 220.539063 L 115.394531 220.523438 L 140.378906 262.886719 L 165.347656 220.539063 L 140.578125 220.539063 "/>
<path style=" stroke:none;fill-rule:evenodd;fill:rgb(90.19928%,41.19873%,14.498901%);fill-opacity:1;" d="M 165.347656 220.539063 L 200.214844 220.539063 L 200.949219 219.574219 L 183.671875 189.488281 L 165.347656 220.539063 "/>
<path style=" stroke:none;fill-rule:evenodd;fill:rgb(90.19928%,41.19873%,14.498901%);fill-opacity:1;" d="M 204.335938 84.757813 L 236.695313 42.355469 L 171.988281 42.355469 L 203.65625 84.757813 L 204.335938 84.757813 "/>
<path style=" stroke:none;fill-rule:evenodd;fill:rgb(90.19928%,41.19873%,14.498901%);fill-opacity:1;" d="M 76.75 85.203125 L 76.40625 84.757813 L 35.300781 84.757813 L 52.601563 114.09375 L 55.199219 114.09375 L 76.75 85.203125 "/>
<path style=" stroke:none;fill-rule:evenodd;fill:rgb(90.19928%,41.19873%,14.498901%);fill-opacity:1;" d="M 224.824219 188.007813 L 225.644531 186.941406 L 205.402344 152.636719 L 184.523438 188.007813 L 224.824219 188.007813 "/>
<path style=" stroke:none;fill-rule:evenodd;fill:rgb(90.19928%,41.19873%,14.498901%);fill-opacity:1;" d="M 182.679688 114.09375 L 205.402344 152.636719 L 227 116.023438 L 225.558594 114.09375 L 182.679688 114.09375 "/>
<path style=" stroke:none;fill-rule:evenodd;fill:rgb(90.19928%,41.19873%,14.498901%);fill-opacity:1;" d="M 108.753906 42.355469 L 44.046875 42.355469 L 76.40625 84.757813 L 77.082031 84.757813 L 108.753906 42.355469 "/>
<path style=" stroke:none;fill-rule:evenodd;fill:rgb(90.19928%,41.19873%,14.498901%);fill-opacity:1;" d="M 79.792969 219.574219 L 80.527344 220.523438 L 115.394531 220.523438 L 97.066406 189.488281 L 79.792969 219.574219 "/>
<path style=" stroke:none;fill-rule:evenodd;fill:rgb(90.19928%,41.19873%,14.498901%);fill-opacity:1;" d="M 140.378906 42.355469 L 171.988281 42.355469 L 140.378906 -0.00390625 L 108.753906 42.355469 L 140.378906 42.355469 "/>
<path style=" stroke:none;fill-rule:evenodd;fill:rgb(90.19928%,41.19873%,14.498901%);fill-opacity:1;" d="M 100.957031 145.546875 L 114.140625 159.765625 L 122.296875 145.546875 L 100.957031 145.546875 "/>
<path style=" stroke:none;fill-rule:evenodd;fill:rgb(90.19928%,41.19873%,14.498901%);fill-opacity:1;" d="M 110.984375 130.058594 L 122.527344 145.171875 L 131.199219 130.058594 L 110.984375 130.058594 "/>
<path style=" stroke:none;fill-rule:evenodd;fill:rgb(90.19928%,41.19873%,14.498901%);fill-opacity:1;" d="M 192.089844 130.058594 L 170.273438 130.058594 L 181.929688 147.894531 L 192.089844 130.058594 "/>
<path style=" stroke:none;fill-rule:evenodd;fill:rgb(90.19928%,41.19873%,14.498901%);fill-opacity:1;" d="M 180.058594 145.546875 L 158.445313 145.546875 L 166.65625 159.851563 L 180.058594 145.546875 "/>
<path style=" stroke:none;fill-rule:evenodd;fill:rgb(90.19928%,41.19873%,14.498901%);fill-opacity:1;" d="M 122.28125 168.570313 L 140.277344 187.976563 L 158.472656 168.570313 L 122.28125 168.570313 "/>
<path style=" stroke:none;fill-rule:evenodd;fill:rgb(90.19928%,41.19873%,14.498901%);fill-opacity:1;" d="M 121.921875 188.007813 L 140.578125 220.539063 L 159.09375 188.007813 L 121.921875 188.007813 "/>
<path style=" stroke:none;fill-rule:evenodd;fill:rgb(90.19928%,41.19873%,14.498901%);fill-opacity:1;" d="M 88.652344 130.058594 L 98.898438 147.921875 L 110.710938 130.058594 L 88.652344 130.058594 "/>
<path style=" stroke:none;fill-rule:evenodd;fill:rgb(90.19928%,41.19873%,14.498901%);fill-opacity:1;" d="M 169.769531 130.058594 L 149.539063 130.058594 L 158.230469 145.171875 L 169.769531 130.058594 "/>
<path style=" stroke:none;fill-rule:evenodd;fill:rgb(90.19928%,41.19873%,14.498901%);fill-opacity:1;" d="M 157.941406 145.546875 L 122.800781 145.546875 L 140.378906 168.570313 L 157.941406 145.546875 "/>
<path style=" stroke:none;fill-rule:evenodd;fill:rgb(90.19928%,41.19873%,14.498901%);fill-opacity:1;" d="M 170.171875 168.570313 L 170.90625 167.257813 L 166.65625 159.851563 L 158.472656 168.570313 L 170.171875 168.570313 "/>
<path style=" stroke:none;fill-rule:evenodd;fill:rgb(90.19928%,41.19873%,14.498901%);fill-opacity:1;" d="M 109.917969 167.113281 L 110.753906 168.570313 L 122.28125 168.570313 L 114.140625 159.765625 L 109.917969 167.113281 "/>
<path style=" stroke:none;fill-rule:evenodd;fill:rgb(100%,100%,100%);fill-opacity:1;" d="M 432.5 238.910156 L 331.195313 238.910156 L 331.195313 228.710938 C 333.515625 228.535156 336.945313 228.277344 341.457031 227.929688 C 345.964844 227.585938 349.078125 227.066406 350.808594 226.375 C 353.992188 225.09375 356.152344 223.378906 357.320313 221.273438 C 358.472656 219.15625 359.0625 216.460938 359.0625 213.175781 L 359.0625 83 C 359.0625 80.074219 358.5 77.480469 357.375 75.234375 C 356.265625 73 354.078125 71.1875 350.808594 69.800781 C 348.746094 68.9375 345.691406 68.058594 341.644531 67.152344 C 337.609375 66.242188 334.121094 65.625 331.195313 65.277344 L 331.195313 55.0625 L 432.5 55.0625 L 432.5 65.277344 C 429.921875 65.535156 426.695313 65.898438 422.832031 66.371094 C 418.957031 66.847656 415.6875 67.511719 413.019531 68.375 C 409.664063 69.5 407.429688 71.242188 406.320313 73.621094 C 405.195313 75.996094 404.636719 78.691406 404.636719 81.703125 L 404.636719 211.75 C 404.636719 214.863281 405.210938 217.511719 406.378906 219.71875 C 407.546875 221.921875 409.75 223.710938 413.019531 225.09375 C 414.835938 225.871094 417.816406 226.617188 421.980469 227.355469 C 426.160156 228.089844 429.660156 228.535156 432.5 228.710938 L 432.5 238.910156 "/>
<path style=" stroke:none;fill-rule:evenodd;fill:rgb(100%,100%,100%);fill-opacity:1;" d="M 563.988281 238.910156 L 462.683594 238.910156 L 462.683594 228.710938 C 465.003906 228.535156 468.433594 228.277344 472.941406 227.929688 C 477.453125 227.585938 480.566406 227.066406 482.292969 226.375 C 485.464844 225.09375 487.640625 223.378906 488.808594 221.273438 C 489.960938 219.15625 490.550781 216.460938 490.550781 213.175781 L 490.550781 83 C 490.550781 80.074219 489.988281 77.480469 488.863281 75.234375 C 487.753906 73 485.550781 71.1875 482.292969 69.800781 C 480.21875 68.9375 477.179688 68.058594 473.132813 67.152344 C 469.097656 66.242188 465.609375 65.625 462.683594 65.277344 L 462.683594 55.0625 L 563.988281 55.0625 L 563.988281 65.277344 C 561.410156 65.535156 558.179688 65.898438 554.304688 66.371094 C 550.445313 66.847656 547.171875 67.511719 544.507813 68.375 C 541.152344 69.5 538.917969 71.242188 537.808594 73.621094 C 536.683594 75.996094 536.121094 78.691406 536.121094 81.703125 L 536.121094 211.75 C 536.121094 214.863281 536.714844 217.511719 537.867188 219.71875 C 539.03125 221.921875 541.238281 223.710938 544.507813 225.09375 C 546.308594 225.871094 549.304688 226.617188 553.46875 227.355469 C 557.648438 228.089844 561.148438 228.535156 563.988281 228.710938 L 563.988281 238.910156 "/>
<path style=" stroke:none;fill-rule:evenodd;fill:rgb(100%,100%,100%);fill-opacity:1;" d="M 759.171875 104.121094 L 749.042969 104.121094 C 746.550781 96.976563 742.15625 89.398438 735.859375 81.359375 C 729.5625 73.316406 723.585938 68.910156 717.9375 68.132813 C 715.359375 67.785156 711.929688 67.484375 707.648438 67.222656 C 703.371094 66.964844 699.421875 66.847656 695.820313 66.847656 L 667.421875 66.847656 L 667.421875 138.847656 L 685.621094 138.847656 C 690.777344 138.847656 695.246094 138.269531 699.035156 137.101563 C 702.824219 135.933594 706.179688 133.859375 709.105469 130.835938 C 711.253906 128.6875 713.339844 125.085938 715.359375 120.042969 C 717.375 115.015625 718.613281 110.679688 719.046875 107.0625 L 728.785156 107.0625 L 728.785156 184.171875 L 719.046875 184.171875 C 718.699219 180.296875 717.359375 175.570313 715.039063 170.011719 C 712.722656 164.449219 710.734375 160.773438 709.105469 158.960938 C 706.613281 156.207031 703.429688 154.160156 699.554688 152.820313 C 695.691406 151.480469 691.035156 150.820313 685.621094 150.820313 L 667.421875 150.820313 L 667.421875 211.734375 C 667.421875 214.847656 668 217.5 669.152344 219.703125 C 670.304688 221.90625 672.507813 223.695313 675.765625 225.078125 C 677.636719 225.855469 680.21875 226.574219 683.515625 227.222656 C 686.800781 227.871094 690.070313 228.363281 693.328125 228.710938 L 693.328125 238.910156 L 595.152344 238.910156 L 595.152344 228.710938 C 597.628906 228.449219 600.914063 228.089844 605.019531 227.613281 C 609.128906 227.136719 611.996094 226.546875 613.621094 225.855469 C 616.707031 224.660156 618.839844 222.972656 620.050781 220.8125 C 621.230469 218.667969 621.835938 215.898438 621.835938 212.527344 L 621.835938 83 C 621.835938 80.074219 621.304688 77.511719 620.234375 75.304688 C 619.15625 73.101563 616.964844 71.273438 613.621094 69.800781 C 611.230469 68.765625 608.0625 67.8125 604.128906 66.949219 C 600.195313 66.097656 597.199219 65.535156 595.152344 65.277344 L 595.152344 55.0625 L 759.171875 55.0625 L 759.171875 104.121094 "/>
<path style=" stroke:none;fill-rule:evenodd;fill:rgb(100%,100%,100%);fill-opacity:1;" d="M 957.671875 180.050781 L 954.070313 238.910156 L 786.058594 238.910156 L 786.058594 228.710938 C 789.054688 228.449219 792.558594 228.046875 796.574219 227.484375 C 800.597656 226.921875 803.246094 226.375 804.527344 225.855469 C 807.613281 224.660156 809.746094 222.972656 810.957031 220.8125 C 812.152344 218.667969 812.742188 215.898438 812.742188 212.527344 L 812.742188 83 C 812.742188 79.902344 812.28125 77.324219 811.328125 75.304688 C 810.394531 73.273438 808.132813 71.445313 804.527344 69.800781 C 801.878906 68.59375 798.695313 67.628906 794.976563 66.890625 C 791.261719 66.15625 788.277344 65.625 786.058594 65.277344 L 786.058594 55.0625 L 886.179688 55.0625 L 886.179688 65.277344 C 883.429688 65.535156 880.1875 65.898438 876.453125 66.371094 C 872.707031 66.847656 869.46875 67.511719 866.714844 68.375 C 863.355469 69.5 861.125 71.257813 860 73.621094 C 858.890625 75.996094 858.328125 78.691406 858.328125 81.71875 L 858.328125 202.527344 C 858.328125 208.234375 858.71875 212.714844 859.480469 216 C 860.261719 219.285156 861.757813 221.707031 863.992188 223.261719 C 866.226563 224.890625 869.335938 225.957031 873.328125 226.429688 C 877.320313 226.90625 882.835938 227.136719 889.867188 227.136719 C 896.742188 227.136719 903.410156 226.734375 909.894531 225.914063 C 916.378906 225.09375 921.03125 223.304688 923.871094 220.539063 C 928.238281 216.144531 932.71875 209.964844 937.3125 201.980469 C 941.910156 194 945.585938 186.695313 948.320313 180.050781 L 957.671875 180.050781 "/>
</g>
</svg>
